<?xml version="1.0" encoding="UTF-8"?>
<svg xmlns="http://www.w3.org/2000/svg" xmlns:xlink="http://www.w3.org/1999/xlink" viewBox="0 0 96 96" width="96px" height="96px">
<g id="surface51167686">
<path style=" stroke:none;fill-rule:nonzero;fill:rgb(100%,100%,100%);fill-opacity:1;" d="M 70.875 84 L 25.125 84 C 21 84 17.625 80.625 17.625 76.5 L 17.625 16.5 C 17.625 12.375 21 9 25.125 9 L 70.875 9 C 75 9 78.375 12.375 78.375 16.5 L 78.375 76.5 C 78.375 80.625 75 84 70.875 84 Z M 70.875 84 "/>
<path style=" stroke:none;fill-rule:nonzero;fill:rgb(80.000001%,80.000001%,80.000001%);fill-opacity:1;" d="M 25.125 16.5 L 70.875 16.5 L 70.875 27.75 L 25.125 27.75 Z M 66.375 42.75 L 28.125 42.75 C 26.851562 42.75 25.875 41.773438 25.875 40.5 C 25.875 39.226562 26.851562 38.25 28.125 38.25 L 66.375 38.25 C 67.648438 38.25 68.625 39.226562 68.625 40.5 C 68.625 41.773438 67.648438 42.75 66.375 42.75 Z M 66.375 54 L 28.125 54 C 26.851562 54 25.875 53.023438 25.875 51.75 C 25.875 50.476562 26.851562 49.5 28.125 49.5 L 66.375 49.5 C 67.648438 49.5 68.625 50.476562 68.625 51.75 C 68.625 53.023438 67.648438 54 66.375 54 Z M 48 65.25 L 28.125 65.25 C 26.851562 65.25 25.875 64.273438 25.875 63 C 25.875 61.726562 26.851562 60.75 28.125 60.75 L 48 60.75 C 49.273438 60.75 50.25 61.726562 50.25 63 C 50.25 64.273438 49.273438 65.25 48 65.25 Z M 48 65.25 "/>
<path style=" stroke:none;fill-rule:nonzero;fill:rgb(20%,20%,20%);fill-opacity:1;" d="M 70.875 86.25 L 25.125 86.25 C 19.726562 86.25 15.375 81.898438 15.375 76.5 L 15.375 16.5 C 15.375 11.101562 19.726562 6.75 25.125 6.75 L 70.875 6.75 C 76.273438 6.75 80.625 11.101562 80.625 16.5 L 80.625 76.5 C 80.625 81.898438 76.273438 86.25 70.875 86.25 Z M 25.125 11.25 C 22.199219 11.25 19.875 13.574219 19.875 16.5 L 19.875 76.5 C 19.875 79.425781 22.199219 81.75 25.125 81.75 L 70.875 81.75 C 73.800781 81.75 76.125 79.425781 76.125 76.5 L 76.125 16.5 C 76.125 13.574219 73.800781 11.25 70.875 11.25 Z M 25.125 11.25 "/>
</g>
</svg>
